<?xml version="1.0" encoding="UTF-8" standalone="no"?><svg xmlns="http://www.w3.org/2000/svg" xmlns:xlink="http://www.w3.org/1999/xlink" contentScriptType="application/ecmascript" contentStyleType="text/css" height="313px" preserveAspectRatio="none" style="width:393px;height:313px;background:#FFFFFF;" version="1.1" viewBox="0 0 393 313" width="393px" zoomAndPan="magnify"><defs><filter height="300%" id="fxkv96aalhmac" width="300%" x="-1" y="-1"><feGaussianBlur result="blurOut" stdDeviation="2.0"/><feColorMatrix in="blurOut" result="blurOut2" type="matrix" values="0 0 0 0 0 0 0 0 0 0 0 0 0 0 0 0 0 0 .4 0"/><feOffset dx="4.0" dy="4.0" in="blurOut2" result="blurOut3"/><feBlend in="SourceGraphic" in2="blurOut3" mode="normal"/></filter></defs><g><!--MD5=[b4ba86d568bfb19f874ed894f2a3af5a]
entity MemberServer--><rect fill="#FEFECE" filter="url(#fxkv96aalhmac)" height="46.2969" style="stroke:#A80036;stroke-width:1.5;" width="147" x="120" y="7"/><rect fill="#FEFECE" height="10" style="stroke:#A80036;stroke-width:1.5;" width="15" x="247" y="12"/><rect fill="#FEFECE" height="2" style="stroke:#A80036;stroke-width:1.5;" width="4" x="245" y="14"/><rect fill="#FEFECE" height="2" style="stroke:#A80036;stroke-width:1.5;" width="4" x="245" y="18"/><text fill="#000000" font-family="sans-serif" font-size="14" lengthAdjust="spacing" textLength="107" x="135" y="39.9951">MemberServer</text><!--MD5=[70361246da95785be83f4ad11f9efae5]
entity EventQueue--><rect fill="#FEFECE" filter="url(#fxkv96aalhmac)" height="46.2969" style="stroke:#A80036;stroke-width:1.5;" width="127" x="130" y="130"/><rect fill="#FEFECE" height="10" style="stroke:#A80036;stroke-width:1.5;" width="15" x="237" y="135"/><rect fill="#FEFECE" height="2" style="stroke:#A80036;stroke-width:1.5;" width="4" x="235" y="137"/><rect fill="#FEFECE" height="2" style="stroke:#A80036;stroke-width:1.5;" width="4" x="235" y="141"/><text fill="#000000" font-family="sans-serif" font-size="14" lengthAdjust="spacing" textLength="87" x="145" y="162.9951">EventQueue</text><!--MD5=[99542a7c699c9871c21c531a9836b6e5]
entity MailServer--><rect fill="#FEFECE" filter="url(#fxkv96aalhmac)" height="46.2969" style="stroke:#A80036;stroke-width:1.5;" width="115" x="7" y="253"/><rect fill="#FEFECE" height="10" style="stroke:#A80036;stroke-width:1.5;" width="15" x="102" y="258"/><rect fill="#FEFECE" height="2" style="stroke:#A80036;stroke-width:1.5;" width="4" x="100" y="260"/><rect fill="#FEFECE" height="2" style="stroke:#A80036;stroke-width:1.5;" width="4" x="100" y="264"/><text fill="#000000" font-family="sans-serif" font-size="14" lengthAdjust="spacing" textLength="75" x="22" y="285.9951">MailServer</text><!--MD5=[83d2ee05767b34444d7bc16ba6d687f9]
entity SmsServer--><rect fill="#FEFECE" filter="url(#fxkv96aalhmac)" height="46.2969" style="stroke:#A80036;stroke-width:1.5;" width="117" x="242" y="253"/><rect fill="#FEFECE" height="10" style="stroke:#A80036;stroke-width:1.5;" width="15" x="339" y="258"/><rect fill="#FEFECE" height="2" style="stroke:#A80036;stroke-width:1.5;" width="4" x="337" y="260"/><rect fill="#FEFECE" height="2" style="stroke:#A80036;stroke-width:1.5;" width="4" x="337" y="264"/><text fill="#000000" font-family="sans-serif" font-size="14" lengthAdjust="spacing" textLength="77" x="257" y="285.9951">SmsServer</text><!--MD5=[79b5db055ff6be0e4a97f63ee22a943e]
link MemberServer to EventQueue--><path d="M193.5,53.193 C193.5,73.405 193.5,103.307 193.5,124.919 " fill="none" id="MemberServer-to-EventQueue" style="stroke:#A80036;stroke-width:1.0;"/><polygon fill="#A80036" points="193.5,129.947,197.5,120.947,193.5,124.947,189.5,120.947,193.5,129.947" style="stroke:#A80036;stroke-width:1.0;"/><text fill="#000000" font-family="sans-serif" font-size="13" lengthAdjust="spacing" textLength="128" x="194.5" y="96.0669">MemberJoinedEvent</text><!--MD5=[cb76c9ba6789df04ada60d0aea7acf81]
link EventQueue to MailServer--><path d="M129.645,156.852 C94.3181,162.098 53.1054,175.061 30.5,206 C20.9326,219.0946 28.0929,235.2925 38.2636,248.7029 " fill="none" id="EventQueue-to-MailServer" style="stroke:#A80036;stroke-width:1.0;"/><polygon fill="#A80036" points="41.5015,252.7688,39.0238,243.2367,38.3867,248.8576,32.7658,248.2204,41.5015,252.7688" style="stroke:#A80036;stroke-width:1.0;"/><text fill="#000000" font-family="sans-serif" font-size="13" lengthAdjust="spacing" textLength="65" x="31.5" y="219.0669">밀어주거나</text><!--MD5=[1a412e3493dcda8b0e795162bc0352f1]
reverse link EventQueue to MailServer--><path d="M165.917,179.873 C142.736,201.6161 109.964,232.3552 88.0106,252.9474 " fill="none" id="EventQueue-backto-MailServer" style="stroke:#A80036;stroke-width:1.0;"/><polygon fill="#A80036" points="169.839,176.193,160.5391,179.4352,166.1931,179.6146,166.0137,185.2686,169.839,176.193" style="stroke:#A80036;stroke-width:1.0;"/><text fill="#000000" font-family="sans-serif" font-size="13" lengthAdjust="spacing" textLength="65" x="138.5" y="219.0669">받아가거나</text><!--MD5=[8bb164405a7984205093897dfa3780ae]
link EventQueue to SmsServer--><path d="M208.362,176.25 C218.046,190.183 231.296,208.2296 244.5,223 C252.624,232.0876 262.129,241.3499 270.979,249.4911 " fill="none" id="EventQueue-to-SmsServer" style="stroke:#A80036;stroke-width:1.0;"/><polygon fill="#A80036" points="274.725,252.9077,270.7717,243.8871,271.0311,249.538,265.3802,249.7974,274.725,252.9077" style="stroke:#A80036;stroke-width:1.0;"/><text fill="#000000" font-family="sans-serif" font-size="13" lengthAdjust="spacing" textLength="65" x="245.5" y="219.0669">밀어주거나</text><!--MD5=[3fa11680e8b12bd96012bc40aa2d67bd]
reverse link EventQueue to SmsServer--><path d="M262.141,167.758 C282.798,175.452 303.22,187.416 315.5,206 C324.692,219.9095 319.884,238.5138 313.357,252.899 " fill="none" id="EventQueue-backto-SmsServer" style="stroke:#A80036;stroke-width:1.0;"/><polygon fill="#A80036" points="257.173,165.989,264.3097,172.7763,261.8833,167.6662,266.9933,165.2398,257.173,165.989" style="stroke:#A80036;stroke-width:1.0;"/><text fill="#000000" font-family="sans-serif" font-size="13" lengthAdjust="spacing" textLength="65" x="320.5" y="219.0669">받아가거나</text><!--MD5=[4da8b6bb153a212ab8691b422d881a6c]
@startuml
[MemberServer] - -> [EventQueue] : MemberJoinedEvent
[EventQueue] - -> [MailServer] : 밀어주거나
[EventQueue] <- - [MailServer] : 받아가거나
[EventQueue] - -> [SmsServer] : 밀어주거나
[EventQueue] <- - [SmsServer] : 받아가거나
@enduml

PlantUML version 1.2022.1beta6(Unknown compile time)
(GPL source distribution)
Java Runtime: Java(TM) SE Runtime Environment
JVM: Java HotSpot(TM) 64-Bit Server VM
Default Encoding: UTF-8
Language: en
Country: US
--></g></svg>