<?xml version="1.0" encoding="UTF-8" standalone="no"?><svg xmlns="http://www.w3.org/2000/svg" xmlns:xlink="http://www.w3.org/1999/xlink" contentScriptType="application/ecmascript" contentStyleType="text/css" height="190px" preserveAspectRatio="none" style="width:615px;height:190px;background:#FFFFFF;" version="1.1" viewBox="0 0 615 190" width="615px" zoomAndPan="magnify"><defs><filter height="300%" id="f108utq7ajzhnu" width="300%" x="-1" y="-1"><feGaussianBlur result="blurOut" stdDeviation="2.0"/><feColorMatrix in="blurOut" result="blurOut2" type="matrix" values="0 0 0 0 0 0 0 0 0 0 0 0 0 0 0 0 0 0 .4 0"/><feOffset dx="4.0" dy="4.0" in="blurOut2" result="blurOut3"/><feBlend in="SourceGraphic" in2="blurOut3" mode="normal"/></filter></defs><g><!--MD5=[b4ba86d568bfb19f874ed894f2a3af5a]
entity MemberServer--><rect fill="#FEFECE" filter="url(#f108utq7ajzhnu)" height="46.2969" style="stroke:#A80036;stroke-width:1.5;" width="147" x="142" y="7"/><rect fill="#FEFECE" height="10" style="stroke:#A80036;stroke-width:1.5;" width="15" x="269" y="12"/><rect fill="#FEFECE" height="2" style="stroke:#A80036;stroke-width:1.5;" width="4" x="267" y="14"/><rect fill="#FEFECE" height="2" style="stroke:#A80036;stroke-width:1.5;" width="4" x="267" y="18"/><text fill="#000000" font-family="sans-serif" font-size="14" lengthAdjust="spacing" textLength="107" x="157" y="39.9951">MemberServer</text><!--MD5=[99542a7c699c9871c21c531a9836b6e5]
entity MailServer--><rect fill="#FEFECE" filter="url(#f108utq7ajzhnu)" height="46.2969" style="stroke:#A80036;stroke-width:1.5;" width="115" x="7" y="130"/><rect fill="#FEFECE" height="10" style="stroke:#A80036;stroke-width:1.5;" width="15" x="102" y="135"/><rect fill="#FEFECE" height="2" style="stroke:#A80036;stroke-width:1.5;" width="4" x="100" y="137"/><rect fill="#FEFECE" height="2" style="stroke:#A80036;stroke-width:1.5;" width="4" x="100" y="141"/><text fill="#000000" font-family="sans-serif" font-size="14" lengthAdjust="spacing" textLength="75" x="22" y="162.9951">MailServer</text><!--MD5=[83d2ee05767b34444d7bc16ba6d687f9]
entity SmsServer--><rect fill="#FEFECE" filter="url(#f108utq7ajzhnu)" height="46.2969" style="stroke:#A80036;stroke-width:1.5;" width="117" x="309" y="130"/><rect fill="#FEFECE" height="10" style="stroke:#A80036;stroke-width:1.5;" width="15" x="406" y="135"/><rect fill="#FEFECE" height="2" style="stroke:#A80036;stroke-width:1.5;" width="4" x="404" y="137"/><rect fill="#FEFECE" height="2" style="stroke:#A80036;stroke-width:1.5;" width="4" x="404" y="141"/><text fill="#000000" font-family="sans-serif" font-size="14" lengthAdjust="spacing" textLength="77" x="324" y="162.9951">SmsServer</text><!--MD5=[e45fa59c6daadf75ed8afbdd0af219d6]
link MemberServer to MailServer--><path d="M141.632,37.478 C111.71,44.162 79.9301,57.324 61.5,83 C52.9686,94.8853 53.2513,111.1157 55.8841,124.8493 " fill="none" id="MemberServer-to-MailServer" style="stroke:#A80036;stroke-width:1.0;"/><polygon fill="#A80036" points="56.9484,129.7834,58.9605,120.1423,55.894,124.8958,51.1404,121.8293,56.9484,129.7834" style="stroke:#A80036;stroke-width:1.0;"/><text fill="#000000" font-family="sans-serif" font-size="13" lengthAdjust="spacing" textLength="261" x="62.5" y="96.0669">등록 `POST /type/JOIN/to/test@test.com`</text><!--MD5=[7fb4e2782a7df6de85fa49fd664ec6c3]
link MemberServer to SmsServer--><path d="M281.613,53.108 C298.196,60.78 315.071,70.644 328.5,83 C341.055,94.5517 350.596,111.0988 357.099,125.0929 " fill="none" id="MemberServer-to-SmsServer" style="stroke:#A80036;stroke-width:1.0;"/><polygon fill="#A80036" points="359.187,129.73,359.1388,119.8813,357.134,125.1709,351.8443,123.1661,359.187,129.73" style="stroke:#A80036;stroke-width:1.0;"/><text fill="#000000" font-family="sans-serif" font-size="13" lengthAdjust="spacing" textLength="264" x="343.5" y="96.0669">등록 `POST /type/JOIN/to/012-3456-7890`</text><!--MD5=[bf91ad49bbd0cc0b20d8504c0a87bb76]
@startuml
[MemberServer] - -> [MailServer] : 등록 `POST /type/JOIN/to/test@test.com`
[MemberServer] - -> [SmsServer] : 등록 `POST /type/JOIN/to/012-3456-7890`
@enduml

PlantUML version 1.2022.1beta6(Unknown compile time)
(GPL source distribution)
Java Runtime: Java(TM) SE Runtime Environment
JVM: Java HotSpot(TM) 64-Bit Server VM
Default Encoding: UTF-8
Language: en
Country: US
--></g></svg>