<?xml version="1.0" encoding="UTF-8" standalone="no"?><svg xmlns="http://www.w3.org/2000/svg" xmlns:xlink="http://www.w3.org/1999/xlink" contentScriptType="application/ecmascript" contentStyleType="text/css" height="190px" preserveAspectRatio="none" style="width:655px;height:190px;background:#FFFFFF;" version="1.1" viewBox="0 0 655 190" width="655px" zoomAndPan="magnify"><defs><filter height="300%" id="ftnjq5ehcr8wg" width="300%" x="-1" y="-1"><feGaussianBlur result="blurOut" stdDeviation="2.0"/><feColorMatrix in="blurOut" result="blurOut2" type="matrix" values="0 0 0 0 0 0 0 0 0 0 0 0 0 0 0 0 0 0 .4 0"/><feOffset dx="4.0" dy="4.0" in="blurOut2" result="blurOut3"/><feBlend in="SourceGraphic" in2="blurOut3" mode="normal"/></filter></defs><g><!--MD5=[110b180fb1e3772e29bc2179dd52a836]
entity MemberJoinService--><rect fill="#FEFECE" filter="url(#ftnjq5ehcr8wg)" height="46.2969" style="stroke:#A80036;stroke-width:1.5;" width="179" x="253.5" y="7"/><rect fill="#FEFECE" height="10" style="stroke:#A80036;stroke-width:1.5;" width="15" x="412.5" y="12"/><rect fill="#FEFECE" height="2" style="stroke:#A80036;stroke-width:1.5;" width="4" x="410.5" y="14"/><rect fill="#FEFECE" height="2" style="stroke:#A80036;stroke-width:1.5;" width="4" x="410.5" y="18"/><text fill="#000000" font-family="sans-serif" font-size="14" lengthAdjust="spacing" textLength="139" x="268.5" y="39.9951">MemberJoinService</text><!--MD5=[e88e593dbfcf77f15f45cdfb0212d3d0]
entity MemberService.insert()--><rect fill="#FEFECE" filter="url(#ftnjq5ehcr8wg)" height="46.2969" style="stroke:#A80036;stroke-width:1.5;" width="210" x="7" y="130"/><rect fill="#FEFECE" height="10" style="stroke:#A80036;stroke-width:1.5;" width="15" x="197" y="135"/><rect fill="#FEFECE" height="2" style="stroke:#A80036;stroke-width:1.5;" width="4" x="195" y="137"/><rect fill="#FEFECE" height="2" style="stroke:#A80036;stroke-width:1.5;" width="4" x="195" y="141"/><text fill="#000000" font-family="sans-serif" font-size="14" lengthAdjust="spacing" textLength="170" x="22" y="162.9951">MemberService.insert()</text><!--MD5=[bfd5e1841aeab60e7204213779e69312]
entity EmailService.send()--><rect fill="#FEFECE" filter="url(#ftnjq5ehcr8wg)" height="46.2969" style="stroke:#A80036;stroke-width:1.5;" width="181" x="252.5" y="130"/><rect fill="#FEFECE" height="10" style="stroke:#A80036;stroke-width:1.5;" width="15" x="413.5" y="135"/><rect fill="#FEFECE" height="2" style="stroke:#A80036;stroke-width:1.5;" width="4" x="411.5" y="137"/><rect fill="#FEFECE" height="2" style="stroke:#A80036;stroke-width:1.5;" width="4" x="411.5" y="141"/><text fill="#000000" font-family="sans-serif" font-size="14" lengthAdjust="spacing" textLength="141" x="267.5" y="162.9951">EmailService.send()</text><!--MD5=[99858e3372c2d649a4b4a13fcfe5811a]
entity SmsService.send()--><rect fill="#FEFECE" filter="url(#ftnjq5ehcr8wg)" height="46.2969" style="stroke:#A80036;stroke-width:1.5;" width="172" x="469" y="130"/><rect fill="#FEFECE" height="10" style="stroke:#A80036;stroke-width:1.5;" width="15" x="621" y="135"/><rect fill="#FEFECE" height="2" style="stroke:#A80036;stroke-width:1.5;" width="4" x="619" y="137"/><rect fill="#FEFECE" height="2" style="stroke:#A80036;stroke-width:1.5;" width="4" x="619" y="141"/><text fill="#000000" font-family="sans-serif" font-size="14" lengthAdjust="spacing" textLength="132" x="484" y="162.9951">SmsService.send()</text><!--MD5=[aeb12d54fa3e51e7c4674e6f090b371a]
link MemberJoinService to MemberService.insert()--><path d="M300.9,53.053 C260.721,74.099 200.308,105.7434 158.675,127.551 " fill="none" id="MemberJoinService-to-MemberService.insert()" style="stroke:#A80036;stroke-width:1.0;"/><polygon fill="#A80036" points="154.201,129.8947,164.0295,129.262,158.6302,127.5747,160.3175,122.1753,154.201,129.8947" style="stroke:#A80036;stroke-width:1.0;"/><text fill="#000000" font-family="sans-serif" font-size="13" lengthAdjust="spacing" textLength="8" x="243" y="96.0669">1</text><!--MD5=[ce736e61a2a118b6e0a9941a52da4b71]
link MemberJoinService to EmailService.send()--><path d="M343,53.193 C343,73.405 343,103.3072 343,124.9188 " fill="none" id="MemberJoinService-to-EmailService.send()" style="stroke:#A80036;stroke-width:1.0;"/><polygon fill="#A80036" points="343,129.9474,347,120.9474,343,124.9474,339,120.9474,343,129.9474" style="stroke:#A80036;stroke-width:1.0;"/><text fill="#000000" font-family="sans-serif" font-size="13" lengthAdjust="spacing" textLength="8" x="344" y="96.0669">2</text><!--MD5=[f1a5e6f7e02ac93bbb7c6b0a8caf194e]
link MemberJoinService to SmsService.send()--><path d="M381.884,53.193 C418.641,74.173 473.69,105.5922 511.801,127.344 " fill="none" id="MemberJoinService-to-SmsService.send()" style="stroke:#A80036;stroke-width:1.0;"/><polygon fill="#A80036" points="516.362,129.9474,510.5284,122.0121,512.0195,127.4689,506.5628,128.9601,516.362,129.9474" style="stroke:#A80036;stroke-width:1.0;"/><text fill="#000000" font-family="sans-serif" font-size="13" lengthAdjust="spacing" textLength="8" x="463" y="96.0669">3</text><!--MD5=[e829b7b380730f9fd90797b6395eeb22]
@startuml
[MemberJoinService] - -> [MemberService.insert()] : 1
[MemberJoinService] - -> [EmailService.send()] : 2
[MemberJoinService] - -> [SmsService.send()] : 3
@enduml

PlantUML version 1.2022.1beta6(Unknown compile time)
(GPL source distribution)
Java Runtime: Java(TM) SE Runtime Environment
JVM: Java HotSpot(TM) 64-Bit Server VM
Default Encoding: UTF-8
Language: en
Country: US
--></g></svg>